<?xml version='1.0' encoding='UTF-8' standalone='no'?>
<!-- Created with Fritzing (https://fritzing.org/) -->
<svg xmlns="http://www.w3.org/2000/svg" baseProfile="tiny" height="1.14003in" version="1.2" viewBox="0 0 54 82.082" width="0.75in" x="0in"  xmlns:svg="http://www.w3.org/2000/svg" y="0in">
 <g id="watermark" >
  <g >
   <g >
    <path d="M29.268,75.882c-0.604,0,-1.131,0.325,-1.422,0.809l-2.796,0l3.96,-4.071c0.146,-0.146,0.289,-0.322,0.428,-0.521c0.149,-0.222,0.228,-0.479,0.228,-0.768c0,-0.279,-0.097,-0.518,-0.287,-0.71c-0.19,-0.188,-0.444,-0.287,-0.754,-0.287l-4.636,0c-0.305,0,-0.555,0.06,-0.742,0.17c-0.219,0.13,-0.33,0.368,-0.33,0.707c0,0.329,0.111,0.562,0.33,0.692c0.188,0.111,0.438,0.168,0.742,0.168l3.148,0l-3.974,4.086c-0.146,0.147,-0.289,0.315,-0.425,0.504c-0.153,0.212,-0.23,0.472,-0.23,0.771c0,0.28,0.096,0.521,0.288,0.711c0.188,0.188,0.442,0.285,0.754,0.285l4.315,0c0.293,0.467,0.812,0.776,1.4,0.776c0.916,0,1.66,-0.744,1.66,-1.661C30.927,76.627,30.182,75.882,29.268,75.882zM29.268,78.145c-0.334,0,-0.604,-0.271,-0.604,-0.604c0,-0.333,0.27,-0.604,0.604,-0.604c0.332,0,0.604,0.271,0.604,0.604C29.871,77.876,29.6,78.145,29.268,78.145z "
        fill="#8C8C8C" />
    <path d="M12.325,65.84c-0.914,0,-1.659,0.745,-1.659,1.66c0,0.916,0.745,1.66,1.659,1.66s1.658,-0.744,1.658,-1.66C13.985,66.585,13.241,65.84,12.325,65.84zM12.326,68.103c-0.333,0,-0.604,-0.27,-0.604,-0.603s0.271,-0.603,0.604,-0.603c0.331,0,0.604,0.27,0.604,0.603S12.657,68.103,12.326,68.103z "
        fill="#8C8C8C" />
    <path d="M20.846,70.502c-0.193,-0.111,-0.439,-0.169,-0.732,-0.169l-1.465,0L18.649,67.811c0,-0.292,-0.057,-0.538,-0.166,-0.729C18.393,66.925,18.2,66.74,17.79,66.74c-0.34,0,-0.578,0.116,-0.709,0.342c-0.109,0.193,-0.167,0.438,-0.167,0.729l0,2.521l-0.481,0c-0.295,0,-0.539,0.06,-0.731,0.169c-0.228,0.129,-0.341,0.368,-0.341,0.708c0,0.412,0.185,0.603,0.341,0.692c0.192,0.111,0.438,0.168,0.731,0.168l0.481,0l0,4.362c0,0.277,0.026,0.533,0.081,0.768c0.056,0.246,0.154,0.464,0.298,0.645c0.146,0.186,0.345,0.332,0.595,0.436c0.241,0.098,0.555,0.146,0.93,0.146l0.896,0c0.292,0,0.539,-0.054,0.731,-0.166c0.154,-0.089,0.341,-0.281,0.341,-0.693c0,-0.338,-0.114,-0.578,-0.341,-0.709c-0.192,-0.109,-0.439,-0.168,-0.731,-0.168l-0.821,0c-0.138,0,-0.19,-0.019,-0.207,-0.024c-0.014,-0.034,-0.035,-0.103,-0.035,-0.231L18.651,72.07l1.465,0c0.295,0,0.541,-0.057,0.734,-0.168c0.152,-0.09,0.34,-0.28,0.34,-0.692C21.186,70.87,21.073,70.631,20.846,70.502z "
        fill="#8C8C8C" />
    <path d="M12.391,70.332l-1.191,0c-0.292,0,-0.538,0.059,-0.731,0.169c-0.226,0.129,-0.341,0.368,-0.341,0.708c0,0.412,0.188,0.604,0.341,0.691c0.193,0.113,0.439,0.168,0.731,0.168l0.544,0l0,5.362c0,0.293,0.057,0.539,0.167,0.73c0.131,0.227,0.367,0.341,0.708,0.341c0.411,0,0.604,-0.187,0.692,-0.341c0.111,-0.191,0.168,-0.438,0.168,-0.73L13.479,71.42c0,-0.386,-0.084,-0.656,-0.256,-0.83C13.048,70.418,12.778,70.332,12.391,70.332z "
        fill="#8C8C8C" />
    <path d="M8.556,70.502c-0.193,-0.111,-0.44,-0.169,-0.732,-0.169l-0.604,0c-0.25,0,-0.498,0.063,-0.734,0.187c-0.226,0.119,-0.433,0.271,-0.616,0.453l-0.644,0.604l0,-0.247c0,-0.291,-0.055,-0.538,-0.168,-0.729c-0.128,-0.228,-0.368,-0.34,-0.707,-0.34c-0.41,0,-0.604,0.184,-0.693,0.34c-0.11,0.191,-0.167,0.438,-0.167,0.729l0,4.801c-0.475,0.293,-0.791,0.816,-0.791,1.412c0,0.917,0.745,1.661,1.658,1.661c0.916,0,1.66,-0.744,1.66,-1.661c0,-0.596,-0.317,-1.119,-0.792,-1.412l0,-2.21l1.738,-1.564c0.1,-0.09,0.199,-0.164,0.297,-0.217c0.084,-0.045,0.174,-0.067,0.274,-0.067l0.288,0c0.292,0,0.539,-0.056,0.732,-0.169c0.155,-0.088,0.339,-0.279,0.339,-0.691C8.896,70.87,8.781,70.631,8.556,70.502zM4.357,78.145c-0.332,0,-0.603,-0.271,-0.603,-0.604c0,-0.333,0.271,-0.604,0.603,-0.604c0.333,0,0.604,0.271,0.604,0.604C4.961,77.876,4.69,78.145,4.357,78.145z "
        fill="#8C8C8C" />
    <path d="M1.84,66.983c-0.193,-0.111,-0.44,-0.167,-0.731,-0.167l-0.59,0c-0.2,0,-0.389,0.004,-0.562,0.016c-0.176,0.009,-0.345,0.035,-0.506,0.07c-0.168,0.041,-0.336,0.109,-0.496,0.202c-0.158,0.093,-0.319,0.222,-0.48,0.382c-0.334,0.314,-0.554,0.656,-0.652,1.017c-0.094,0.348,-0.143,0.735,-0.143,1.151l0,0.678l-0.483,0c-0.292,0,-0.539,0.059,-0.73,0.169c-0.227,0.13,-0.342,0.369,-0.342,0.708c0,0.412,0.185,0.604,0.341,0.693c0.191,0.111,0.438,0.166,0.73,0.166l0.483,0l0,5.362c0,0.293,0.057,0.539,0.167,0.73c0.13,0.227,0.367,0.341,0.708,0.341c0.411,0,0.603,-0.187,0.692,-0.341c0.111,-0.191,0.168,-0.438,0.168,-0.73l0,-5.36l0.92,0c0.293,0,0.54,-0.057,0.732,-0.168c0.155,-0.09,0.34,-0.28,0.34,-0.692c0,-0.34,-0.114,-0.579,-0.34,-0.708c-0.189,-0.111,-0.436,-0.17,-0.729,-0.17l-0.92,0l0,-0.678c0,-0.218,0.019,-0.41,0.056,-0.571c0.032,-0.141,0.103,-0.261,0.218,-0.367l0.002,-0.004l0.002,-0.002c0.082,-0.082,0.176,-0.126,0.29,-0.136c0.15,-0.015,0.339,-0.022,0.564,-0.022l0.56,0c0.291,0,0.539,-0.058,0.731,-0.168c0.154,-0.088,0.339,-0.281,0.339,-0.693C2.18,67.352,2.065,67.113,1.84,66.983z "
        fill="#8C8C8C" />
    <path d="M53.833,70.6c-0.089,-0.156,-0.282,-0.34,-0.693,-0.34c-0.339,0,-0.578,0.113,-0.707,0.34c-0.078,0.133,-0.127,0.293,-0.152,0.477l-0.021,-0.021c-0.216,-0.236,-0.466,-0.42,-0.747,-0.539c-0.277,-0.119,-0.563,-0.183,-0.849,-0.183l-0.709,0c-0.249,0,-0.466,0.015,-0.64,0.041c-0.182,0.026,-0.352,0.074,-0.51,0.14c-0.158,0.066,-0.313,0.15,-0.459,0.254c-0.139,0.097,-0.303,0.226,-0.486,0.377c-0.188,0.156,-0.342,0.302,-0.463,0.434c-0.127,0.141,-0.23,0.293,-0.306,0.455c-0.069,0.16,-0.122,0.337,-0.147,0.523c-0.026,0.178,-0.041,0.391,-0.041,0.631l0,2.386c0,0.24,0.015,0.451,0.041,0.631c0.025,0.188,0.078,0.361,0.147,0.521c0.074,0.164,0.179,0.318,0.306,0.457c0.119,0.129,0.274,0.274,0.463,0.433c0.186,0.153,0.35,0.28,0.486,0.379c0.146,0.103,0.299,0.188,0.459,0.254c0.158,0.065,0.329,0.112,0.51,0.14c0.174,0.026,0.389,0.039,0.64,0.039l0.709,0c0.298,0,0.591,-0.066,0.87,-0.199c0.244,-0.114,0.492,-0.291,0.73,-0.523l0,1.434c0,0.18,-0.025,0.334,-0.072,0.465c-0.043,0.119,-0.159,0.258,-0.344,0.406c-0.154,0.127,-0.309,0.217,-0.457,0.264c-0.15,0.049,-0.341,0.074,-0.563,0.074l-2.203,0c-0.293,0,-0.538,0.055,-0.732,0.166c-0.152,0.088,-0.34,0.282,-0.34,0.692c0,0.341,0.115,0.579,0.34,0.71c0.194,0.109,0.439,0.167,0.732,0.167l2.326,0c0.247,0,0.463,-0.015,0.638,-0.041c0.179,-0.026,0.351,-0.073,0.513,-0.14c0.153,-0.064,0.31,-0.15,0.455,-0.254c0.143,-0.101,0.305,-0.227,0.487,-0.379c0.185,-0.153,0.343,-0.299,0.463,-0.431c0.128,-0.141,0.229,-0.294,0.304,-0.456c0.071,-0.162,0.123,-0.338,0.148,-0.523c0.025,-0.182,0.041,-0.393,0.041,-0.631l0,-7.898C54,71.038,53.946,70.791,53.833,70.6zM52.264,75.06c0,0.188,-0.062,0.35,-0.188,0.49c-0.15,0.172,-0.394,0.403,-0.716,0.686l-0.002,0.003l-0.002,0.004c-0.139,0.13,-0.291,0.237,-0.453,0.325c-0.148,0.082,-0.325,0.121,-0.526,0.121L50.076,76.689c-0.222,0,-0.41,-0.021,-0.563,-0.072c-0.148,-0.049,-0.301,-0.137,-0.453,-0.264c-0.231,-0.186,-0.315,-0.322,-0.346,-0.404c-0.049,-0.131,-0.072,-0.285,-0.072,-0.465l0,-2.206c0,-0.18,0.023,-0.336,0.072,-0.467c0.029,-0.082,0.113,-0.217,0.346,-0.403c0.152,-0.127,0.305,-0.216,0.453,-0.265c0.153,-0.049,0.342,-0.072,0.563,-0.072l0.301,0c0.212,0,0.388,0.037,0.526,0.113c0.152,0.082,0.308,0.191,0.457,0.324c0.322,0.293,0.564,0.529,0.716,0.7c0.128,0.146,0.188,0.304,0.188,0.492L52.264,75.06z "
        fill="#8C8C8C" />
    <path d="M33.854,65.84c-0.914,0,-1.66,0.745,-1.66,1.66c0,0.916,0.746,1.66,1.66,1.66s1.66,-0.744,1.66,-1.66C35.514,66.585,34.768,65.84,33.854,65.84zM33.854,68.103c-0.332,0,-0.604,-0.27,-0.604,-0.603s0.271,-0.603,0.604,-0.603s0.604,0.27,0.604,0.603C34.458,67.833,34.186,68.103,33.854,68.103z "
        fill="#8C8C8C" />
    <path d="M44.54,76.108l-0.107,-3.419c-0.011,-0.178,-0.021,-0.338,-0.031,-0.489c-0.01,-0.162,-0.037,-0.322,-0.082,-0.476c-0.045,-0.158,-0.11,-0.309,-0.198,-0.453c-0.093,-0.146,-0.216,-0.289,-0.37,-0.42c-0.225,-0.192,-0.443,-0.334,-0.646,-0.416c-0.207,-0.084,-0.461,-0.127,-0.754,-0.127l-1.012,0c-0.259,0,-0.501,0.058,-0.716,0.164c-0.197,0.098,-0.39,0.203,-0.572,0.315l-0.003,0.002l-0.003,0.003l-0.837,0.555l0,-0.041c0,-0.291,-0.057,-0.539,-0.168,-0.733c-0.129,-0.226,-0.367,-0.339,-0.707,-0.339c-0.411,0,-0.604,0.185,-0.693,0.339c-0.109,0.194,-0.168,0.438,-0.168,0.733l0,6.099c0,0.295,0.059,0.539,0.168,0.734c0.09,0.153,0.282,0.338,0.693,0.338c0.34,0,0.578,-0.114,0.707,-0.338c0.111,-0.195,0.168,-0.439,0.168,-0.734L39.209,73.37l1.953,-1.215c0.04,-0.024,0.082,-0.048,0.121,-0.063c0.031,-0.016,0.07,-0.025,0.115,-0.031c0.049,-0.012,0.117,-0.016,0.195,-0.016l0.362,0c0.188,0,0.334,0.021,0.435,0.059c0.082,0.029,0.143,0.076,0.18,0.143c0.05,0.078,0.08,0.18,0.098,0.303c0.02,0.139,0.034,0.309,0.045,0.504l0.096,3.097c-0.457,0.297,-0.762,0.811,-0.762,1.394c0,0.917,0.746,1.661,1.66,1.661c0.916,0,1.66,-0.744,1.66,-1.661C45.366,76.933,45.033,76.395,44.54,76.108zM43.706,78.145c-0.334,0,-0.602,-0.271,-0.602,-0.604c0,-0.333,0.268,-0.604,0.602,-0.604c0.333,0,0.604,0.271,0.604,0.604C44.311,77.876,44.039,78.145,43.706,78.145z "
        fill="#8C8C8C" />
    <path d="M33.917,70.332l-1.193,0c-0.293,0,-0.539,0.059,-0.731,0.169c-0.226,0.129,-0.341,0.368,-0.341,0.708c0,0.412,0.186,0.604,0.341,0.691c0.192,0.113,0.438,0.168,0.731,0.168l0.545,0l0,5.362c0,0.293,0.055,0.539,0.168,0.73c0.127,0.227,0.365,0.341,0.707,0.341c0.41,0,0.604,-0.187,0.691,-0.341c0.111,-0.191,0.17,-0.438,0.17,-0.73L35.005,71.42c0,-0.386,-0.085,-0.656,-0.259,-0.83C34.574,70.418,34.301,70.332,33.917,70.332z "
        fill="#8C8C8C" />
   </g>
  </g>
 </g>
 <g partID="58100">
  <g id="breadboard">
   <rect fill="#1F7A34" height="59.04" width="54"/>
   <!-- Sensor Pads -->
   <rect fill="blue" height="4.145" width="2.076" x="48.947" y="27.451"/>
   <rect fill="blue" height="2.076" width="4.145" x="37.453" y="15.597"/>
   <rect fill="blue" height="2.076" width="4.145" x="37.453" y="41.938"/>
   <!-- Connector -->
   <rect fill="none" height="50.998" stroke="#FFFFFF" stroke-linecap="round" 
         stroke-linejoin="round" stroke-miterlimit="10" stroke-width="0.5826" 
         width="7.289" x="1.093" y="3.645"/>
   <g>
   <!-- Holes -->
    <path d="M4.738,4.824c-1.331,0,-2.409,1.078,-2.409,2.41c0,1.33,1.078,2.41,2.409,2.41c1.33,0,2.41,-1.08,2.41,-2.41C7.148,5.902,6.068,4.824,4.738,4.824zM4.738,8.621C3.972,8.621,3.351,8,3.351,7.234s0.621,-1.387,1.387,-1.387c0.767,0,1.388,0.621,1.388,1.387S5.503,8.621,4.738,8.621z" 
          fill="#9A916C"/>
    <circle cx="4.738" cy="7.228 "
        fill="#FFFFFF" id="hole_6_" r="1.387"/>
   </g>
   <g>
    <path d="M4.738,12.127c-1.331,0,-2.409,1.078,-2.409,2.41c0,1.33,1.078,2.41,2.409,2.41c1.33,0,2.41,-1.08,2.41,-2.41C7.148,13.206,6.068,12.127,4.738,12.127zM4.738,15.924c-0.766,0,-1.387,-0.621,-1.387,-1.387c0,-0.766,0.621,-1.387,1.387,-1.387c0.767,0,1.388,0.621,1.388,1.387C6.125,15.303,5.503,15.924,4.738,15.924z" 
          fill="#9A916C"/>
    <circle cx="4.738" cy="14.532 "
        fill="#FFFFFF" id="hole_5_" r="1.387"/>
   </g>
   <g>
    <path d="M4.738,19.431c-1.331,0,-2.409,1.078,-2.409,2.41c0,1.33,1.078,2.41,2.409,2.41c1.33,0,2.41,-1.08,2.41,-2.41C7.148,20.509,6.068,19.431,4.738,19.431zM4.738,23.228c-0.766,0,-1.387,-0.621,-1.387,-1.387c0,-0.766,0.621,-1.387,1.387,-1.387c0.767,0,1.388,0.621,1.388,1.387C6.125,22.607,5.503,23.228,4.738,23.228z "
        fill="#9A916C"/>
    <circle cx="4.738" cy="21.835 "
        fill="#FFFFFF" id="hole_4_" r="1.387"/>
   </g>
   <g>
    <path d="M4.738,26.733c-1.331,0,-2.409,1.078,-2.409,2.41c0,1.33,1.078,2.41,2.409,2.41c1.33,0,2.41,-1.08,2.41,-2.41C7.148,27.812,6.068,26.733,4.738,26.733zM4.738,30.532c-0.766,0,-1.387,-0.622,-1.387,-1.389c0,-0.766,0.621,-1.387,1.387,-1.387c0.767,0,1.388,0.621,1.388,1.387C6.125,29.91,5.503,30.532,4.738,30.532z "
        fill="#9A916C"/>
    <circle cx="4.738" cy="29.139 "
        fill="#FFFFFF" id="hole_3_" r="1.387"/>
   </g>
   <g>
    <path d="M4.738,34.038c-1.331,0,-2.409,1.078,-2.409,2.41c0,1.328,1.078,2.408,2.409,2.408c1.33,0,2.41,-1.08,2.41,-2.408C7.148,35.116,6.068,34.038,4.738,34.038zM4.738,37.834c-0.766,0,-1.387,-0.621,-1.387,-1.387c0,-0.769,0.621,-1.39,1.387,-1.39c0.767,0,1.388,0.621,1.388,1.39C6.125,37.213,5.503,37.834,4.738,37.834z "
        fill="#9A916C"/>
    <circle cx="4.738" cy="36.441 "
        fill="#FFFFFF" id="hole_2_" r="1.387"/>
   </g>
   <g>
    <path d="M4.738,41.34c-1.331,0,-2.409,1.078,-2.409,2.41c0,1.33,1.078,2.41,2.409,2.41c1.33,0,2.41,-1.08,2.41,-2.41C7.148,42.418,6.068,41.34,4.738,41.34zM4.738,45.138c-0.766,0,-1.387,-0.621,-1.387,-1.388c0,-0.769,0.621,-1.39,1.387,-1.39c0.767,0,1.388,0.621,1.388,1.39C6.126,44.517,5.503,45.138,4.738,45.138z "
        fill="#9A916C"/>
    <circle cx="4.738" cy="43.744 "
        fill="#FFFFFF" id="hole_1_" r="1.388"/>
   </g>
   <g>
    <path d="M4.738,48.542c-1.331,0,-2.409,1.078,-2.409,2.41c0,1.33,1.078,2.41,2.409,2.41c1.33,0,2.41,-1.08,2.41,-2.41C7.148,49.62,6.068,48.542,4.738,48.542zM4.738,52.338c-0.766,0,-1.387,-0.621,-1.387,-1.387c0,-0.769,0.621,-1.39,1.387,-1.39c0.767,0,1.388,0.621,1.388,1.39C6.125,51.717,5.503,52.338,4.738,52.338z "
        fill="#9A916C"/>
    <circle cx="4.738" cy="50.948 "
        fill="#FFFFFF" id="hole" r="1.388"/>
   </g>
    <!-- Text Labels -->
   <g transform="matrix(1, 0, 0, 1, 9.3457, 8.4302)">
    <text fill="#FFFFFF" font-family="OCRA" font-size="4" id="text_7_">DRDY</text>
   </g>
   <g transform="matrix(1, 0, 0, 1, 23.7622, 4.5063)">
    <text fill="#FFFFFF" font-family="OCRA" font-size="4" id="text_6_">SCP1000</text>
   </g>
   <g transform="matrix(1, 0, 0, 1, 9.7622, 15.7368)">
    <text fill="#FFFFFF" font-family="OCRA" font-size="4" id="text_5_">CSB</text>
   </g>
   <g transform="matrix(1, 0, 0, 1, 9.0122, 23.0376)">
    <text fill="#FFFFFF" font-family="OCRA" font-size="4" id="text_4_">MISO</text>
   </g>
   <g transform="matrix(1, 0, 0, 1, 9.3452, 30.3384)">
    <text fill="#FFFFFF" font-family="OCRA" font-size="4" id="text_3_">MOSI</text>
   </g>
   <g transform="matrix(1, 0, 0, 1, 9.9287, 37.647)">
    <text fill="#FFFFFF" font-family="OCRA" font-size="4" id="text_2_">SCK</text>
   </g>
   <g transform="matrix(1, 0, 0, 1, 9.2617, 44.9487)">
    <text fill="#FFFFFF" font-family="OCRA" font-size="4" id="text_1_">3.3V</text>
   </g>
   <g transform="matrix(1, 0, 0, 1, 9.5122, 52.147)">
    <text fill="#FFFFFF" font-family="OCRA" font-size="4" id="text">GND</text>
   </g>
   <g>
    <g>
     <g enable-background="new">
      <g>
       <circle cx="39.525" cy="29.52 "
        fill="#383838" r="6.92"/>
      </g>
      <g enable-background="new">
       <g>
        <g>
         <defs>
          <path d="M39.525,22.6c0,-0.552,0,-1,0,-1c4.373,0,7.92,3.546,7.92,7.919c0,4.374,-3.547,7.921,-7.92,7.921c-4.375,0,-7.92,-3.547,-7.92,-7.921s3.545,-7.919,7.92,-7.919C39.525,21.6,39.525,22.048,39.525,22.6c-3.82,0,-6.922,3.099,-6.92,6.919c-0.002,3.819,3.1,6.922,6.92,6.921c3.82,0.001,6.92,-3.102,6.92,-6.921C46.445,25.699,43.346,22.6,39.525,22.6z" id="SVGID_1_"/>
         </defs> 
         <g clip-path="url(#SVGID_2_)" enable-background="new">
          <path d="M39.525,22.6c0,-0.552,0,-1,0,-1c4.373,0,7.92,3.546,7.92,7.919c0,4.374,-3.547,7.921,-7.92,7.921c-4.375,0,-7.92,-3.547,-7.92,-7.921s3.545,-7.919,7.92,-7.919C39.525,21.6,39.525,22.048,39.525,22.6c-3.82,0,-6.922,3.099,-6.92,6.919c-0.002,3.819,3.1,6.922,6.92,6.921c3.82,0.001,6.92,-3.102,6.92,-6.921C46.445,25.699,43.346,22.6,39.525,22.6"                 
                fill="#404040"/>
          <path d="M39.525,22.6c-0.118,0.123,-0.397,0.016,-0.567,0.023c-2.071,0.083,-6.351,1.934,-6.351,7.122c0,3.626,3.231,6.755,6.918,6.696c6.811,-0.106,9,-8.016,4.776,-11.927C42.001,22.382,39.537,22.586,39.525,22.6c0,-0.552,0,-1,0,-1c4.373,0,7.92,3.546,7.92,7.919c0,4.374,-3.547,7.921,-7.92,7.921c-4.375,0,-7.92,-3.547,-7.92,-7.921s3.545,-7.919,7.92,-7.919C39.525,21.6,39.525,22.048,39.525,22.6" 
                fill="#404040"/>
          <path d="M39.525,22.593c-0.118,0.123,-0.397,0.016,-0.568,0.023c-1.989,0.08,-6.352,1.986,-6.352,7.128c0,3.221,2.842,6.764,6.92,6.7c6.824,-0.107,9.02,-8.025,4.787,-11.94C42.008,22.371,39.537,22.58,39.525,22.593c0,-0.549,0,-0.993,0,-0.993c4.373,0,7.92,3.546,7.92,7.919c0,4.374,-3.547,7.921,-7.92,7.921c-4.375,0,-7.92,-3.547,-7.92,-7.921s3.545,-7.919,7.92,-7.919C39.525,21.6,39.525,22.044,39.525,22.593 "
                fill="#3F3F3F"/>
          <path d="M39.525,22.587c-0.118,0.123,-0.397,0.016,-0.568,0.023c-1.991,0.08,-6.355,1.987,-6.355,7.135c0,3.222,2.844,6.767,6.924,6.703c6.26,-0.1,9.269,-7.424,4.879,-11.875C42.361,22.5,39.539,22.572,39.525,22.587c0,-0.546,0,-0.987,0,-0.987c4.373,0,7.92,3.546,7.92,7.919c0,4.374,-3.547,7.921,-7.92,7.921c-4.375,0,-7.92,-3.547,-7.92,-7.921s3.545,-7.919,7.92,-7.919C39.525,21.6,39.525,22.041,39.525,22.587 "
                fill="#3D3D3D"/>
          <path d="M39.525,22.581c-0.118,0.124,-0.398,0.016,-0.569,0.023c-1.991,0.08,-6.356,1.989,-6.356,7.142c0,3.223,2.844,6.77,6.926,6.706c6.271,-0.098,9.285,-7.431,4.891,-11.888C42.368,22.489,39.539,22.565,39.525,22.581c0,-0.543,0,-0.98,0,-0.98c4.373,0,7.92,3.546,7.92,7.919c0,4.374,-3.547,7.921,-7.92,7.921c-4.375,0,-7.92,-3.547,-7.92,-7.921s3.545,-7.919,7.92,-7.919C39.525,21.6,39.525,22.038,39.525,22.581 "
                fill="#3C3C3C"/>
          <path d="M39.525,22.574c-0.118,0.124,-0.398,0.016,-0.569,0.023c-1.993,0.08,-6.36,1.991,-6.36,7.148c0,3.224,2.846,6.773,6.93,6.71c6.281,-0.1,9.304,-7.439,4.897,-11.904C42.375,22.479,39.539,22.559,39.525,22.574c0,-0.54,0,-0.974,0,-0.974c4.373,0,7.92,3.546,7.92,7.919c0,4.374,-3.547,7.921,-7.92,7.921c-4.375,0,-7.92,-3.547,-7.92,-7.921s3.545,-7.919,7.92,-7.919C39.525,21.6,39.525,22.034,39.525,22.574 "
                fill="#3B3B3B"/>
          <path d="M39.525,22.568c-0.118,0.123,-0.399,0.016,-0.57,0.022c-1.993,0.08,-6.363,1.992,-6.363,7.154c0,3.225,2.848,6.776,6.934,6.713c6.293,-0.1,9.32,-7.448,4.908,-11.917C42.441,22.527,39.588,22.502,39.525,22.568c0,-0.538,0,-0.968,0,-0.968c4.373,0,7.92,3.546,7.92,7.919c0,4.374,-3.547,7.921,-7.92,7.921c-4.375,0,-7.92,-3.547,-7.92,-7.921s3.545,-7.919,7.92,-7.919C39.525,21.6,39.525,22.031,39.525,22.568 "
                fill="#3A3A3A"/>
          <path d="M39.525,22.562c-0.118,0.124,-0.399,0.016,-0.57,0.023c-1.995,0.08,-6.367,1.994,-6.367,7.16c0,3.229,2.85,6.78,6.938,6.716c6.303,-0.1,9.334,-7.457,4.918,-11.927C42.448,22.517,39.588,22.496,39.525,22.562c0,-0.535,0,-0.962,0,-0.962c4.373,0,7.92,3.546,7.92,7.919c0,4.374,-3.547,7.921,-7.92,7.921c-4.375,0,-7.92,-3.547,-7.92,-7.921s3.545,-7.919,7.92,-7.919C39.525,21.6,39.525,22.027,39.525,22.562 "
                fill="#383838"/>
          <path d="M39.525,22.556c-0.119,0.124,-0.399,0.016,-0.571,0.023c-1.995,0.08,-6.369,1.996,-6.369,7.167c0,3.637,3.243,6.777,6.94,6.719c6.31,-0.098,9.348,-7.463,4.926,-11.939C42.396,22.445,39.539,22.541,39.525,22.556c0,-0.532,0,-0.956,0,-0.956c4.373,0,7.92,3.546,7.92,7.919c0,4.374,-3.547,7.921,-7.92,7.921c-4.375,0,-7.92,-3.547,-7.92,-7.921s3.545,-7.919,7.92,-7.919C39.525,21.6,39.525,22.024,39.525,22.556 "
                fill="#373737"/>
          <path d="M39.525,22.549c-0.119,0.124,-0.4,0.016,-0.571,0.023c-1.997,0.08,-6.373,1.997,-6.373,7.173c0,3.64,3.245,6.781,6.944,6.724c6.315,-0.1,9.361,-7.472,4.935,-11.953C42.404,22.435,39.539,22.534,39.525,22.549c0,-0.528,0,-0.949,0,-0.949c4.373,0,7.92,3.546,7.92,7.919c0,4.374,-3.547,7.921,-7.92,7.921c-4.375,0,-7.92,-3.547,-7.92,-7.921s3.545,-7.919,7.92,-7.919C39.525,21.6,39.525,22.021,39.525,22.549 "
                fill="#363636"/>
          <path d="M39.525,22.543c-0.119,0.124,-0.4,0.016,-0.572,0.023c-1.997,0.08,-6.375,1.999,-6.375,7.179c0,3.232,2.854,6.791,6.947,6.727c6.328,-0.097,9.379,-7.478,4.942,-11.965C42.357,22.368,39.539,22.528,39.525,22.543c0,-0.525,0,-0.943,0,-0.943c4.373,0,7.92,3.546,7.92,7.919c0,4.374,-3.547,7.921,-7.92,7.921c-4.375,0,-7.92,-3.547,-7.92,-7.921s3.545,-7.919,7.92,-7.919C39.525,21.6,39.525,22.018,39.525,22.543 "
                fill="#343434"/>
          <path d="M39.525,22.537c-0.119,0.124,-0.4,0.016,-0.572,0.023c-1.998,0.08,-6.379,2,-6.379,7.185c0,3.234,2.854,6.792,6.951,6.73c6.233,-0.096,9.356,-7.732,4.914,-12.017C42.242,22.341,39.538,22.522,39.525,22.537c0,-0.523,0,-0.937,0,-0.937c4.373,0,7.92,3.546,7.92,7.919c0,4.374,-3.547,7.921,-7.92,7.921c-4.375,0,-7.92,-3.547,-7.92,-7.921s3.545,-7.919,7.92,-7.919C39.525,21.6,39.525,22.014,39.525,22.537 "
                fill="#333333"/>
          <path d="M39.525,22.53c-0.119,0.124,-0.401,0.016,-0.573,0.021c-1.999,0.08,-6.382,2.001,-6.382,7.193c0,3.235,2.854,6.795,6.955,6.732c6.203,-0.097,9.313,-7.608,4.969,-11.997C42.436,22.405,39.591,22.461,39.525,22.53c0,-0.521,0,-0.93,0,-0.93c4.373,0,7.92,3.546,7.92,7.919c0,4.374,-3.547,7.921,-7.92,7.921c-4.375,0,-7.92,-3.547,-7.92,-7.921s3.545,-7.919,7.92,-7.919C39.525,21.6,39.525,22.011,39.525,22.53 "
                fill="#323232"/>
          <path d="M39.525,22.518c-0.119,0.125,-0.401,0.017,-0.574,0.024c-2,0.083,-6.385,2.011,-6.385,7.205c0,3.236,2.856,6.798,6.959,6.736c6.218,-0.095,9.338,-7.619,4.981,-12.016C42.499,22.438,39.59,22.45,39.525,22.518c0,-0.514,0,-0.917,0,-0.917c4.373,0,7.92,3.546,7.92,7.919c0,4.374,-3.547,7.921,-7.92,7.921c-4.375,0,-7.92,-3.547,-7.92,-7.921s3.545,-7.919,7.92,-7.919C39.525,21.6,39.525,22.004,39.525,22.518 "
                fill="#313131"/>
          <path d="M39.525,22.506c-0.119,0.125,-0.402,0.017,-0.575,0.024c-2,0.085,-6.386,2.02,-6.386,7.216c0,3.238,2.856,6.803,6.961,6.74c6.297,-0.097,9.442,-7.773,4.953,-12.081C42.27,22.288,39.539,22.491,39.525,22.506c0,-0.508,0,-0.906,0,-0.906c4.373,0,7.92,3.546,7.92,7.919c0,4.374,-3.547,7.921,-7.92,7.921c-4.375,0,-7.92,-3.547,-7.92,-7.921s3.545,-7.919,7.92,-7.919C39.525,21.6,39.525,21.998,39.525,22.506 "
                fill="#2F2F2F"/>
          <path d="M39.525,22.494c-0.119,0.125,-0.403,0.018,-0.576,0.025c-2.001,0.087,-6.389,2.029,-6.389,7.227c0,3.239,2.858,6.805,6.965,6.743c6.275,-0.096,9.427,-7.652,5.029,-12.068C42.531,22.39,39.59,22.425,39.525,22.494c0,-0.502,0,-0.894,0,-0.894c4.373,0,7.92,3.546,7.92,7.919c0,4.374,-3.547,7.921,-7.92,7.921c-4.375,0,-7.92,-3.547,-7.92,-7.921s3.545,-7.919,7.92,-7.919C39.525,21.6,39.525,21.991,39.525,22.494 "
                fill="#2E2E2E"/>
          <path d="M39.525,22.481c-0.121,0.125,-0.403,0.019,-0.576,0.026c-2.004,0.091,-6.393,2.039,-6.393,7.238c0,3.241,2.86,6.81,6.969,6.748c6.34,-0.098,9.514,-7.682,5.067,-12.113C42.613,22.406,39.59,22.414,39.525,22.481c0,-0.496,0,-0.881,0,-0.881c4.373,0,7.92,3.546,7.92,7.919c0,4.374,-3.547,7.921,-7.92,7.921c-4.375,0,-7.92,-3.547,-7.92,-7.921s3.545,-7.919,7.92,-7.919C39.525,21.6,39.525,21.985,39.525,22.481 "
                fill="#2D2D2D"/>
          <path d="M39.525,22.47c-0.121,0.125,-0.404,0.021,-0.577,0.027c-2.003,0.093,-6.396,2.048,-6.396,7.25c0,3.244,2.863,6.812,6.974,6.75c6.781,-0.103,9.217,-8.179,5.139,-12.179C42.659,22.353,39.591,22.4,39.525,22.47c0,-0.491,0,-0.87,0,-0.87c4.373,0,7.92,3.546,7.92,7.919c0,4.374,-3.547,7.921,-7.92,7.921c-4.375,0,-7.92,-3.547,-7.92,-7.921s3.545,-7.919,7.92,-7.919C39.525,21.6,39.525,21.979,39.525,22.47 "
                fill="#2C2C2C"/>
          <path d="M39.525,22.446c-0.118,0.125,-0.401,0.024,-0.573,0.035c-2.089,0.126,-6.401,2.067,-6.401,7.265c0,3.245,2.864,6.815,6.975,6.754c7.281,-0.109,9.02,-8.719,5.279,-12.306C43.001,22.468,39.652,22.312,39.525,22.446c0,-0.479,0,-0.846,0,-0.846c4.373,0,7.92,3.546,7.92,7.919c0,4.374,-3.547,7.921,-7.92,7.921c-4.375,0,-7.92,-3.547,-7.92,-7.921s3.545,-7.919,7.92,-7.919C39.525,21.6,39.525,21.967,39.525,22.446 "
                fill="#2A2A2A"/>
          <path d="M39.525,22.415c-0.117,0.125,-0.399,0.026,-0.571,0.037c-2.091,0.138,-6.407,2.102,-6.407,7.294c0,3.247,2.866,6.819,6.979,6.756c7.102,-0.106,9.213,-8.875,5.682,-12.388C43.324,22.243,39.544,22.395,39.525,22.415c0,-0.464,0,-0.815,0,-0.815c4.373,0,7.92,3.546,7.92,7.919c0,4.374,-3.547,7.921,-7.92,7.921c-4.375,0,-7.92,-3.547,-7.92,-7.921s3.545,-7.919,7.92,-7.919C39.525,21.6,39.525,21.951,39.525,22.415 "
                fill="#292929"/>
          <path d="M39.525,22.369c-0.09,0.099,-0.312,0.03,-0.444,0.043c-3.817,0.375,-6.688,3.597,-6.537,7.335c0.164,4.037,3.481,6.998,7.556,6.737c6.289,-0.401,7.455,-8.115,6.752,-9.981c0.383,0.93,0.594,1.948,0.594,3.017c0,4.374,-3.545,7.921,-7.92,7.921c-4.373,0,-7.92,-3.547,-7.92,-7.921s3.547,-7.919,7.92,-7.919C39.525,21.6,39.525,21.928,39.525,22.369 "
                fill="#282828"/>
          <path d="M39.525,22.288c-0.08,0.091,-0.278,0.04,-0.398,0.057c-4.494,0.646,-6.715,4.212,-6.587,7.402c0.163,4.03,3.483,6.994,7.56,6.746c6.037,-0.369,7.291,-7.893,7.211,-8.434c0.09,0.473,0.135,0.961,0.135,1.46c0,4.374,-3.545,7.921,-7.92,7.921c-4.373,0,-7.92,-3.547,-7.92,-7.921s3.547,-7.919,7.92,-7.919C39.525,21.6,39.525,21.889,39.525,22.288 "
                fill="#262626"/>
          <path d="M39.525,22.109c-0.078,0.104,-0.291,0.082,-0.418,0.114c-6.746,1.708,-6.662,6.669,-6.575,7.646c0.426,4.857,4.526,7.145,8.247,6.549c5.015,-0.801,6.662,-7.007,6.664,-7.067c0,0.057,0.002,0.112,0.002,0.169c0,4.374,-3.547,7.921,-7.92,7.921c-4.375,0,-7.92,-3.547,-7.92,-7.921s3.545,-7.919,7.92,-7.919C39.525,21.6,39.525,21.805,39.525,22.109 "
                fill="#252525"/>
          <path d="M39.525,21.657l-1.344,0.677c-1.521,0.603,-6.142,2.435,-5.613,8.104c0.326,3.504,4.037,6.876,8.33,5.973c0.49,-0.104,1.979,-0.416,3.41,-1.709c1.213,-1.095,3.019,-3.854,3.066,-4.136c-0.514,3.88,-3.832,6.875,-7.854,6.875c-4.373,0,-7.92,-3.547,-7.92,-7.921s3.547,-7.919,7.92,-7.919C39.525,21.6,39.525,21.62,39.525,21.657 "
                fill="#242424"/>
          <path d="M38.49,21.669c-0.088,0.029,-2.953,1.714,-4.209,3.138c-1.199,1.36,-1.575,2.811,-1.693,3.555c-0.555,3.516,1.518,6.293,3.68,7.387c2.334,1.183,4.449,0.834,5.812,0.336c2.559,-0.938,5.027,-4.277,5.039,-4.309c-0.973,3.273,-4.004,5.664,-7.594,5.664c-4.375,0,-7.92,-3.547,-7.92,-7.921c0,-4.044,3.031,-7.381,6.945,-7.86C38.533,21.662,38.508,21.666,38.49,21.669 "
                fill="#232323"/>
          <path d="M37.073,21.989c-0.019,0.011,-2.567,2.16,-3.619,3.938c-0.47,0.795,-1.021,2.104,-0.97,3.82c0.099,3.371,2.593,5.83,5.006,6.517c2.248,0.643,3.892,0.072,4.594,-0.17c1.338,-0.465,4.292,-2.648,4.498,-2.979c-1.311,2.564,-3.979,4.322,-7.059,4.322c-4.373,0,-7.92,-3.547,-7.92,-7.921c0,-3.545,2.33,-6.546,5.543,-7.556C37.124,21.971,37.096,21.98,37.073,21.989 "
                fill="#212121"/>
          <path d="M43.625,22.746c-0.861,-0.451,-2.705,-0.454,-4.102,-0.377c0,-0.441,0,-0.769,0,-0.769c1.533,0,2.965,0.435,4.177,1.189C43.678,22.776,43.648,22.758,43.625,22.746 "
                fill="#282828"/>
          <path d="M42.186,22.061c-0.254,-0.065,-0.416,-0.059,-0.586,-0.044c-0.695,0.06,-1.382,0.19,-2.074,0.271c0,-0.399,0,-0.688,0,-0.688c0.955,0,1.871,0.169,2.721,0.479C42.227,22.074,42.203,22.065,42.186,22.061 "
                fill="#262626"/>
          <path d="M40.95,21.73c-0.087,-0.006,-0.193,-0.013,-0.401,0.042c-0.348,0.092,-0.677,0.243,-1.023,0.336c0,-0.304,0,-0.509,0,-0.509c0.507,0,1,0.047,1.48,0.138C40.99,21.736,40.967,21.732,40.95,21.73 "
                fill="#252525"/>
          <path d="M39.753,21.605c-0.067,0.007,-0.122,0.012,-0.229,0.052c0,-0.037,0,-0.057,0,-0.057c0.097,0,0.189,0.001,0.283,0.005C39.791,21.605,39.77,21.604,39.753,21.605 "
                fill="#242424"/>
         </g>
        </g>
       </g>
      </g>
     </g>
    </g>
   </g>
   <rect fill="#404040" height="1.833" width="1.834" x="38.678" y="23.876"/>
  </g>
 </g>
</svg>
